<svg xmlns="http://www.w3.org/2000/svg" version="1.0" width="256.000000pt" height="256.000000pt" viewBox="0 0 256.000000 256.000000" preserveAspectRatio="xMidYMid meet">

<g transform="translate(0.000000,256.000000) scale(0.100000,-0.100000)" fill="#ffffff" stroke="none">
<path d="M1110 2545 c-140 -20 -260 -58 -395 -125 -381 -188 -631 -530 -700 -955 -19 -115 -19 -224 0 -350 34 -222 99 -399 208 -563 182 -273 451 -449 800 -524 144 -30 370 -30 514 0 349 75 618 251 800 524 109 164 174 341 208 563 55 369 -66 749 -331 1033 -102 111 -225 201 -369 272 -138 69 -256 105 -405 125 -126 17 -204 17 -330 0z m356 -156 c149 -22 320 -89 453 -177 161 -106 325 -313 400 -505 99 -255 110 -561 27 -803 -96 -283 -300 -510 -579 -645 l-82 -40 -3 313 -2 313 108 108 109 109 44 -12 c143 -39 299 80 299 227 0 42 -25 110 -55 149 -36 47 -117 84 -184 84 -157 0 -271 -161 -220 -310 l12 -32 -132 -132 -131 -131 -2 -364 -3 -365 -29 -7 c-16 -5 -53 -9 -83 -11 l-53 -3 0 649 0 648 44 29 c69 43 100 98 104 183 3 63 0 77 -25 126 -21 40 -42 63 -78 85 -43 27 -57 30 -125 30 -68 0 -82 -3 -125 -30 -36 -22 -57 -45 -78 -85 -25 -49 -28 -63 -25 -126 4 -85 35 -140 104 -183 l44 -29 0 -648 0 -649 -53 3 c-30 2 -67 6 -83 11 l-29 7 -3 365 -2 364 -131 131 -132 132 12 32 c38 109 -18 239 -125 290 -36 18 -58 21 -108 18 -196 -12 -294 -232 -169 -378 62 -72 156 -103 242 -80 l44 12 109 -109 108 -108 -2 -313 -3 -313 -82 40 c-173 84 -347 228 -440 366 -91 135 -159 303 -183 457 -20 122 -8 361 23 480 54 207 163 394 308 533 193 184 411 280 704 309 51 4 181 -3 261 -15z m-129 -651 c30 -34 34 -55 19 -92 -18 -44 -64 -63 -107 -45 -35 14 -63 66 -52 96 13 38 46 63 83 63 25 0 43 -7 57 -22z m-722 -403 c47 -46 24 -125 -42 -141 -53 -14 -113 46 -99 99 16 66 95 89 141 42z m1443 5 c46 -43 37 -107 -19 -139 -52 -29 -119 13 -119 74 0 72 87 113 138 65z" fill="#ffffff"/>
</g>
</svg>